<svg id="Layer_1" data-name="Layer 1" xmlns="http://www.w3.org/2000/svg" viewBox="0 0 250 250"><defs><style>.cls-1{fill:#006ca9;}</style></defs><title>button</title><path class="cls-1" d="M215.15,56.86V47.73a30,30,0,0,0-29.92-29.92H65.17A30,30,0,0,0,35.25,47.73v9.13Z"/><path class="cls-1" d="M35.25,63.87H12.81a7.48,7.48,0,0,0-7.48,7.49v44.87a7.47,7.47,0,0,0,7.48,7.48H237.59a7.47,7.47,0,0,0,7.48-7.48V71.36a7.48,7.48,0,0,0-7.48-7.49H35.25Z"/><path class="cls-1" d="M173.36,172.52c5.14-8.45,1.41-16.73-8.69-16.73h-79c-9.85,0-13.83,8.11-8.61,16.73l38.43,62.77c5,8.28,14.41,8.12,19.46,0Z"/></svg>