<svg id="Layer_1" data-name="Layer 1" xmlns="http://www.w3.org/2000/svg" viewBox="0 0 250 250"><defs><style>.cls-1{fill:#5c5b5f;}</style></defs><title>lamp_g</title><path class="cls-1" d="M150.34,86.75H99.68a4.22,4.22,0,0,1,0-8.36h50.66a4.22,4.22,0,0,1,0,8.36Z"/><path class="cls-1" d="M150.34,75.08H99.68a4.23,4.23,0,0,1,0-8.38h5.42l5.45-11.09s2.64-3.58,4-4,16.94-2.12,21.76,0c0,0,2.36.68,4.2,4.25,1.43,2.72,4.42,8.3,5.76,10.81h4.07a4.23,4.23,0,0,1,0,8.38Z"/><path class="cls-1" d="M150.34,98.43H99.68a4.22,4.22,0,0,1,0-8.36h50.66a4.22,4.22,0,0,1,0,8.36Z"/><path class="cls-1" d="M142.4,172a2.49,2.49,0,0,1,.29,2.35c-.32.53-.65.79-1,.79-.76,0-1.79-1-2.28-2a7.85,7.85,0,0,1-.39-4.79A10.32,10.32,0,0,1,142.4,172Z"/><path class="cls-1" d="M120.64,174.08a3.66,3.66,0,0,1,.1,2.75.34.34,0,0,1-.36.19,2.19,2.19,0,0,1-.78-.2,4.44,4.44,0,0,1-2.23-2.32A6.78,6.78,0,0,1,117,169c.12.15.25.3.37.46A22.65,22.65,0,0,1,120.64,174.08Z"/><path class="cls-1" d="M104.47,151.59a327.13,327.13,0,0,0,18.1-50.31h7.69a332.31,332.31,0,0,0,16.84,47.55A22.06,22.06,0,0,0,136,161.29a22.24,22.24,0,0,0-10.81-1.54,20.42,20.42,0,0,0-8,2.26C115.13,159.59,110.29,154.37,104.47,151.59Z"/><path class="cls-1" d="M93,160.82l-.34,0c-.63,0-1.37-.25-1.51-.81a3.28,3.28,0,0,1,.76-2.75,7.63,7.63,0,0,1,5.4-2.79,3.15,3.15,0,0,1,.44,0L96.49,157C95.64,158.77,94.57,160.57,93,160.82Z"/><path class="cls-1" d="M158.31,159.28h0c-.17,0-.68-.21-1.87-2.15l-.09-.15c-.75-1.46-1.49-3-2.25-4.56a6.15,6.15,0,0,1,3.91,1.66,4,4,0,0,1,1,3.11C158.88,158.65,158.51,159.19,158.31,159.28Z"/><path class="cls-1" d="M125,248.78A68.24,68.24,0,0,1,96.41,118.57V105.32a4,4,0,0,1,4-4h17.12A319.39,319.39,0,0,1,99.88,150a11.3,11.3,0,0,0-10.06,2.71c-1.95,1.75-3.81,4.78-3.57,7.61a5.43,5.43,0,0,0,2.68,4.22,6.63,6.63,0,0,0,3.59,1.09c3.78,0,6.78-3.41,8.2-6.34q.82-1.62,1.62-3.27a34.58,34.58,0,0,1,11.21,9.09,9.87,9.87,0,0,0-1.76,4.52c-.4,2.91,1,7.19,3.29,9.77,2.4,2.76,5.49,3.24,8.24,1.24a6,6,0,0,0,2.62-4.1c.48-3.72-2.75-7.66-5.11-10.54-.1-.12-.21-.25-.3-.38a10,10,0,0,1,2.15-.69c4.09-.85,7.76-.75,10.47.31.5.19,1,.4,1.48.62a28.79,28.79,0,0,0-.44,3c-.41,4.24.77,7.33,3.71,9.72a6.5,6.5,0,0,0,4,1.44,4.79,4.79,0,0,0,3.54-1.44,7,7,0,0,0,2.11-5.61c-.38-4.11-4.16-7.24-5.76-8.4-.48-.34-1-.67-1.46-1,1.23-3.44,3.83-8.54,8.72-10.47,1,2.1,2,4.19,3.05,6.21a2.5,2.5,0,0,0,.25.41c.9,1.36,3.23,4.4,6.1,4.4a4.36,4.36,0,0,0,2.92-1.18c2.74-2.42,2.85-6.53,1.74-9.52-1.39-3.73-5.06-6-9.82-6-.5,0-1,0-1.5.08a324,324,0,0,1-16.54-46.29h14.28a4,4,0,0,1,4,4v13.25A68.24,68.24,0,0,1,125,248.78Z"/><rect class="cls-1" x="120.63" y="1.22" width="8.75" height="54.94"/></svg>