<svg id="Layer_1" data-name="Layer 1" xmlns="http://www.w3.org/2000/svg" viewBox="0 0 250 250"><defs><style>.cls-1{fill:#f0801a;}</style></defs><title>lamp_y</title><g id="Medium-L"><path class="cls-1" d="M87,194.09h76.09a5.79,5.79,0,0,0,6.13-6.13V172.17c0-26.27,37.88-42.06,37.88-89.1,0-48.6-33-81.16-82.06-81.16S42.9,34.47,42.9,83.07c0,47,38,62.83,38,89.1V188A5.79,5.79,0,0,0,87,194.09Zm3.35,28.07h69.3a9.78,9.78,0,0,0,0-19.56H90.35a9.78,9.78,0,0,0,0,19.56ZM125,248.09c15,0,25.69-7,26.76-17.5H98.21C99.19,241.14,109.82,248.09,125,248.09Z"/></g></svg>