<svg id="Layer_1" data-name="Layer 1" xmlns="http://www.w3.org/2000/svg" viewBox="0 0 250 250"><defs><style>.cls-1{fill:#fff;}</style></defs><title>lamp_w</title><path class="cls-1" d="M220,153.71c-35.23,11-38.21,21.31-13,47.94-35.59-8.92-43-1.52-34.08,34.08-26.63-25.22-36.94-22.25-47.94,13-11-35.23-21.31-38.2-47.94-13,8.92-35.6,1.51-43-34.08-34.08C68.2,175,65.22,164.71,30,153.71c35.23-11,38.21-21.32,13-47.95,35.59,8.91,43,1.52,34.08-34.08,9.16,8.68,16.38,14,22.37,15.83v3.62a57.53,57.53,0,1,0,51.14,0V87.52c6-1.84,13.21-7.16,22.37-15.84-8.91,35.6-1.51,43,34.08,34.08C181.8,132.39,184.78,142.7,220,153.71Z"/><path class="cls-1" d="M144.88,68.41H105.13a3.31,3.31,0,0,1,0-6.56h39.75a3.31,3.31,0,0,1,0,6.56Z"/><path class="cls-1" d="M144.88,59.25H105.13a3.32,3.32,0,0,1,0-6.57h4.25L113.66,44s2.07-2.81,3.14-3.11,13.29-1.67,17.08,0c0,0,1.85.53,3.29,3.33,1.12,2.14,3.47,6.52,4.52,8.49h3.19a3.32,3.32,0,0,1,0,6.57Z"/><path class="cls-1" d="M144.88,77.57H105.13a3.31,3.31,0,0,1,0-6.56h39.75a3.31,3.31,0,0,1,0,6.56Z"/><path class="cls-1" d="M138.65,135.32c.41.81.48,1.43.23,1.84s-.51.62-.77.62c-.59,0-1.4-.81-1.79-1.57a6.13,6.13,0,0,1-.3-3.76A8,8,0,0,1,138.65,135.32Z"/><path class="cls-1" d="M121.58,136.93a2.85,2.85,0,0,1,.07,2.16.26.26,0,0,1-.28.15,1.7,1.7,0,0,1-.61-.16,3.47,3.47,0,0,1-1.75-1.82,5.33,5.33,0,0,1-.26-4.32l.29.37A18.24,18.24,0,0,1,121.58,136.93Z"/><path class="cls-1" d="M108.89,119.29a257.64,257.64,0,0,0,14.2-39.48h6a261.68,261.68,0,0,0,13.22,37.31,17.27,17.27,0,0,0-8.75,9.78,17.37,17.37,0,0,0-8.48-1.21,15.84,15.84,0,0,0-6.25,1.77C117.25,125.56,113.46,121.47,108.89,119.29Z"/><path class="cls-1" d="M99.88,126.53h-.27c-.49,0-1.07-.19-1.18-.63a2.55,2.55,0,0,1,.6-2.16,6,6,0,0,1,4.23-2.19l.35,0c-.32.66-.65,1.31-1,2C102,124.92,101.12,126.33,99.88,126.53Z"/><path class="cls-1" d="M151.14,125.32h0c-.13,0-.53-.17-1.47-1.69l-.07-.12c-.58-1.15-1.16-2.33-1.77-3.58a4.91,4.91,0,0,1,3.08,1.31,3.18,3.18,0,0,1,.77,2.44C151.58,124.82,151.29,125.25,151.14,125.32Z"/><path class="cls-1" d="M125,195.55A53.55,53.55,0,0,1,102.57,93.37V83a3.16,3.16,0,0,1,3.16-3.16h13.43a250.35,250.35,0,0,1-13.87,38.26,8.89,8.89,0,0,0-7.9,2.13c-1.52,1.37-3,3.75-2.79,6a4.23,4.23,0,0,0,2.09,3.31,5.28,5.28,0,0,0,2.82.86c3,0,5.32-2.68,6.44-5,.42-.85.85-1.7,1.27-2.56a27.23,27.23,0,0,1,8.8,7.12,7.79,7.79,0,0,0-1.39,3.56,11,11,0,0,0,2.58,7.66c1.89,2.17,4.31,2.54,6.47,1a4.69,4.69,0,0,0,2.06-3.22c.37-2.91-2.16-6-4-8.26a3.15,3.15,0,0,1-.24-.3,7.27,7.27,0,0,1,1.69-.54,14.89,14.89,0,0,1,8.22.24c.39.15.77.31,1.16.48a22.29,22.29,0,0,0-.35,2.33c-.32,3.33.6,5.76,2.91,7.63a5.07,5.07,0,0,0,3.16,1.13,3.74,3.74,0,0,0,2.77-1.13,5.47,5.47,0,0,0,1.66-4.4c-.3-3.22-3.26-5.68-4.52-6.59-.37-.27-.75-.52-1.15-.77,1-2.7,3-6.7,6.85-8.22.78,1.65,1.58,3.29,2.38,4.88a2.2,2.2,0,0,0,.21.32c.7,1.06,2.53,3.45,4.78,3.45a3.4,3.4,0,0,0,2.29-.93c2.15-1.89,2.24-5.12,1.36-7.47-1.08-2.92-4-4.67-7.7-4.67a11.46,11.46,0,0,0-1.17.06,253.56,253.56,0,0,1-13-36.32h11.2A3.16,3.16,0,0,1,147.43,83v10.4A53.55,53.55,0,0,1,125,195.55Z"/><rect class="cls-1" x="121.57" y="1.29" width="6.87" height="43.11"/></svg>